<?xml version="1.0" encoding="UTF-8" standalone="no"?>
<svg
   width="94.787239"
   height="102.293"
   viewBox="0 0 94.787239 102.293"
   fill="none"
   version="1.1"
   id="svg38"
   sodipodi:docname="SE_home_page_logo.svg"
   inkscape:version="1.4 (86a8ad7, 2024-10-11)"
   xmlns:inkscape="http://www.inkscape.org/namespaces/inkscape"
   xmlns:sodipodi="http://sodipodi.sourceforge.net/DTD/sodipodi-0.dtd"
   xmlns="http://www.w3.org/2000/svg"
   xmlns:svg="http://www.w3.org/2000/svg">
  <sodipodi:namedview
     id="namedview38"
     pagecolor="#ffffff"
     bordercolor="#000000"
     borderopacity="0.25"
     inkscape:showpageshadow="2"
     inkscape:pageopacity="0.0"
     inkscape:pagecheckerboard="0"
     inkscape:deskcolor="#d1d1d1"
     inkscape:zoom="1.1653436"
     inkscape:cx="333.37808"
     inkscape:cy="111.98414"
     inkscape:window-width="1920"
     inkscape:window-height="1009"
     inkscape:window-x="1912"
     inkscape:window-y="-8"
     inkscape:window-maximized="1"
     inkscape:current-layer="svg38" />
  <path
     d="m 59.40374,9.1133 2.5749,5.0041 c 17.0648,6.1152 28.7897,22.5805 28.7897,40.8119 0,23.9097 -19.4591,43.3567 -43.3841,43.3567 -23.9249,0 -43.3746,-19.447 -43.3746,-43.3567 0,-18.2409 11.7249,-34.6967 28.7897,-40.8119 l 2.575,-4.9946 C 14.70844,14.5257 0,33.3364 0,54.9293 0,81.042 21.26444,102.293 47.39374,102.293 c 26.1293,0 47.3935,-21.251 47.3935,-47.3637 0,-21.5929 -14.7081,-40.413 -35.3835,-45.816 z"
     fill="url(#paint0_linear_131_34)"
     id="path15"
     style="fill:url(#paint0_linear_131_34)" />
  <mask
     id="mask0_131_34"
     maskUnits="userSpaceOnUse"
     x="15"
     y="41"
     width="82"
     height="82">
    <path
       d="m 56.3919,122.296 c 22.3703,0 40.5051,-18.124 40.5051,-40.48 0,-22.3563 -18.1348,-40.4796 -40.5051,-40.4796 -22.3704,0 -40.5052,18.1233 -40.5052,40.4796 0,22.356 18.1348,40.48 40.5052,40.48 z"
       fill="#ffffff"
       id="path16" />
  </mask>
  <g
     mask="url(#mask0_131_34)"
     id="g19"
     transform="translate(-8.99976,-27)">
    <path
       d="m 96.9739,80.8568 c -0.228,3.0766 -4.9883,15.8671 -10.8413,15.8671 -2.3754,0 -2.9074,-3.4754 -3.297,-6.0581 -1.0547,4.121 -8.3234,13.0282 -13.7108,13.0282 -9.7961,0 -12.0764,-20.6532 -12.7416,-23.4069 -0.6651,2.7442 -2.9454,23.4069 -12.7415,23.4069 -5.3874,0 -12.6561,-8.8977 -13.7108,-13.0282 -0.3896,2.5827 -0.9121,6.0581 -3.297,6.0581 -5.853,0 -10.6133,-12.7905 -10.8413,-15.8671 -1.2542,1.8517 -1.2352,9.3342 0.6271,14.1294 6.214,15.9998 21.7776,27.3658 39.954,27.3658 18.1765,0 33.7401,-11.366 39.9541,-27.3658 1.8623,-4.7952 1.8813,-12.2682 0.6271,-14.1294 z"
       fill="url(#paint1_linear_131_34)"
       id="path17"
       style="fill:url(#paint1_linear_131_34)" />
    <path
       d="m 56.3922,103.751 c 1.6153,2.962 5.1308,7.397 11.1548,7.397 6.024,0 10.7083,-6.21 12.276,-8.831 -0.5035,1.842 -1.5202,5.783 1.7578,5.783 7.5158,0 12.9507,-11.8793 12.9507,-11.8793 -5.929,15.2693 -20.7895,26.1223 -38.1393,26.1223 -17.3499,0 -32.2103,-10.853 -38.1393,-26.1223 0,0 5.4349,11.8793 12.9507,11.8793 3.2875,0 2.2613,-3.951 1.7577,-5.783 1.5678,2.621 6.1,8.831 12.2761,8.831 6.0239,0 9.53,-4.444 11.1548,-7.397 z"
       fill="url(#paint2_linear_131_34)"
       id="path18"
       style="fill:url(#paint2_linear_131_34)" />
    <path
       d="m 65.9417,117.073 c -3.6961,0 -6.5751,-1.149 -9.549,-3 -2.974,1.842 -5.853,3 -9.5491,3 -5.6344,0 -7.3447,-1.662 -9.3875,-3.181 0.057,1.937 2.0333,4.672 4.0761,5.659 4.5323,1.995 9.6251,2.792 14.8605,2.792 5.2353,0 10.3282,-0.807 14.8604,-2.792 2.0428,-0.997 4.0097,-3.722 4.0762,-5.659 -2.0429,1.519 -3.7531,3.181 -9.3876,3.181 z"
       fill="url(#paint3_linear_131_34)"
       id="path19"
       style="fill:url(#paint3_linear_131_34)" />
  </g>
  <path
     d="m 41.92114,35.1599 -5.815,12.3157 c -0.2375,0.5033 -0.323,1.073 -0.228,1.6333 l 1.8433,11.1287 c 0.057,0.3609 0.5891,0.3609 0.6461,0 l 0.9977,-6.0676 c 0.4085,-2.5163 1.7482,-4.7953 3.7531,-6.381 l -1.1972,-12.6386 z"
     fill="#ff4800"
     id="path20" />
  <path
     d="m 52.86734,35.1599 5.815,12.3157 c 0.2375,0.5033 0.323,1.073 0.228,1.6333 l -1.8433,11.1382 c -0.057,0.3609 -0.5796,0.3609 -0.6461,0 L 55.42324,54.17 c -0.4085,-2.5163 -1.7482,-4.7953 -3.7531,-6.381 l 1.1972,-12.6386 z"
     fill="#ff4800"
     id="path21" />
  <path
     d="M 55.98274,15.8362 48.01094,0.3774 c -0.2565,-0.5032 -0.9691,-0.5032 -1.2352,0 l -7.9718,15.4493 c -0.3325,0.6362 -0.456,1.3674 -0.3515,2.07 l 4.0191,28.2398 -0.5986,2.6398 2.1189,5.8113 c 0.0475,0.1329 0.171,0.2184 0.304,0.2184 h 6.1665 c 0.1331,0 0.2566,-0.0855 0.3041,-0.2184 l 2.1188,-5.8113 -0.5986,-2.6398 4.0192,-28.2398 c 0.1045,-0.7121 -0.019,-1.4338 -0.3516,-2.07 z"
     fill="url(#paint4_linear_131_34)"
     id="path22"
     style="fill:url(#paint4_linear_131_34)" />
  <path
     d="m 47.11834,41.4835 -2.8315,6.9982 c -0.437,1.0825 -0.5226,2.279 -0.2375,3.4089 l 3.0215,12.0974 c 0.0855,0.3323 0.5606,0.3323 0.6366,0 l 3.0215,-12.0974 c 0.285,-1.1299 0.1995,-2.3264 -0.2376,-3.4089 l -2.8314,-6.9982 c -0.1045,-0.2469 -0.4561,-0.2469 -0.5511,0 z"
     fill="#ff4800"
     id="path23" />
  <defs
     id="defs38">
    <linearGradient
       id="paint0_linear_131_34"
       x1="56.393501"
       y1="9.1933804"
       x2="56.393501"
       y2="159.451"
       gradientUnits="userSpaceOnUse"
       gradientTransform="translate(-8.99976,-27)">
      <stop
         offset="0.3"
         stop-color="#00ADFF"
         id="stop23" />
      <stop
         offset="1"
         stop-color="#1542FF"
         id="stop24" />
    </linearGradient>
    <linearGradient
       id="paint1_linear_131_34"
       x1="56.3927"
       y1="82.024803"
       x2="56.3927"
       y2="136.026"
       gradientUnits="userSpaceOnUse">
      <stop
         stop-color="#FCE3AD"
         id="stop25" />
      <stop
         offset="0.07"
         stop-color="#FCE2A4"
         id="stop26" />
      <stop
         offset="0.19"
         stop-color="#FCE08B"
         id="stop27" />
      <stop
         offset="0.33"
         stop-color="#FCDD64"
         id="stop28" />
      <stop
         offset="0.48"
         stop-color="#FCDA32"
         id="stop29" />
      <stop
         offset="0.66"
         stop-color="#F9BC22"
         id="stop30" />
      <stop
         offset="1"
         stop-color="#F57700"
         id="stop31" />
    </linearGradient>
    <linearGradient
       id="paint2_linear_131_34"
       x1="56.3922"
       y1="95.840897"
       x2="56.3922"
       y2="126.531"
       gradientUnits="userSpaceOnUse">
      <stop
         stop-color="#FCD619"
         id="stop32" />
      <stop
         offset="0.35"
         stop-color="#F9B811"
         id="stop33" />
      <stop
         offset="1"
         stop-color="#F57700"
         id="stop34" />
    </linearGradient>
    <linearGradient
       id="paint3_linear_131_34"
       x1="56.3927"
       y1="111.186"
       x2="56.3927"
       y2="125.334"
       gradientUnits="userSpaceOnUse">
      <stop
         stop-color="#F57700"
         id="stop35" />
      <stop
         offset="1"
         stop-color="#FF4800"
         id="stop36" />
    </linearGradient>
    <linearGradient
       id="paint4_linear_131_34"
       x1="56.393101"
       y1="27.007099"
       x2="56.393101"
       y2="98.375702"
       gradientUnits="userSpaceOnUse"
       gradientTransform="translate(-8.99976,-27)">
      <stop
         stop-color="#E4E4E4"
         id="stop37" />
      <stop
         offset="0.88"
         stop-color="#B6B8B8"
         id="stop38" />
    </linearGradient>
  </defs>
</svg>
