<?xml version="1.0" encoding="UTF-8"?>
<svg id="_Слой_1" data-name="Слой 1" xmlns="http://www.w3.org/2000/svg" viewBox="0 0 876 876">
  <defs>
    <style>
      .cls-1 {
        fill: #fff;
      }

      .cls-2 {
        fill: #ed1c24;
      }
    </style>
  </defs>
  <circle class="cls-2" cx="438" cy="438" r="438"/>
  <path class="cls-1" d="M438,175c35.51,0,69.95,6.95,102.37,20.66,31.32,13.25,59.44,32.21,83.6,56.37,24.16,24.16,43.12,52.29,56.37,83.6,13.71,32.41,20.66,66.85,20.66,102.37s-6.95,69.95-20.66,102.37c-13.25,31.32-32.21,59.44-56.37,83.6-24.16,24.16-52.29,43.12-83.6,56.37-32.41,13.71-66.85,20.66-102.37,20.66s-69.95-6.95-102.37-20.66c-31.32-13.25-59.44-32.21-83.6-56.37-24.16-24.16-43.12-52.29-56.37-83.6-13.71-32.41-20.66-66.85-20.66-102.37s6.95-69.95,20.66-102.37c13.25-31.32,32.21-59.44,56.37-83.6,24.16-24.16,52.29-43.12,83.6-56.37,32.41-13.71,66.85-20.66,102.37-20.66m0-16c-154.09,0-279,124.91-279,279s124.91,279,279,279,279-124.91,279-279-124.91-279-279-279h0Z"/>
  <polygon class="cls-1" points="601.49 438.35 370 304.7 370 572 601.49 438.35"/>
</svg>